<?xml version="1.0" encoding="utf-8"?>
<!-- Generator: Adobe Illustrator 24.1.2, SVG Export Plug-In . SVG Version: 6.00 Build 0)  -->
<svg version="1.1" id="Layer_1" xmlns="http://www.w3.org/2000/svg" xmlns:xlink="http://www.w3.org/1999/xlink" x="0px" y="0px"
	 viewBox="0 0 1303 236" style="enable-background:new 0 0 1303 236;" xml:space="preserve">
<style type="text/css">
	.st0{display:none;}
	.st1{display:inline;fill:#6B291A;}
	.st2{fill:none;stroke:#FFFFFF;stroke-width:2;stroke-miterlimit:10;}
	.st3{fill:#6B291A;}
</style>
<g class="st0">
	<path class="st1" d="M760.4-252.9c-36.6,0-61.4,28.1-61.4,65s24.8,65,61.4,65s61.4-28.1,61.4-65S797.1-252.9,760.4-252.9z"/>
	<path class="st1" d="M386.5-250.8h-13v80.9h13c33.6,0,48.4-13.3,48.4-40.4C434.9-237.5,419.6-250.8,386.5-250.8z"/>
	<path class="st1" d="M953.8-250.8h-13v77.1h13c33.6,0,48.4-10.4,48.4-38.3S986.9-250.8,953.8-250.8z"/>
	<path class="st1" d="M-38.9-290.1v204.4h1257.6v-204.4H-38.9z M99-89.3H-38v-197.2H94.9v35.7H3.4v62.7H84v34.8H3.4v28.3H99V-89.3z
		 M256.6-89.3l-31.5-52.5c-6.2-10.1-13.9-27.8-13.9-27.8s-6.2,17.4-12.4,27.8l-31,52.5h-43.4l65.5-108.5l-54.5-88.7h47l20.3,34
		c5.9,9.8,13.3,26.9,13.3,26.9s5.6-16.8,11.5-26.9l19.5-34h44l-53.7,89l66.7,108.2H256.6z M387.7-134.3h-14.1v45h-41.4v-197.2h55.5
		c56.1,0,89.7,28.7,89.7,76.3S443.5-134.3,387.7-134.3z M641.9-89.3H509.6v-197.2H551v161.5h90.9L641.9-89.3L641.9-89.3z
		 M760.4-86.7c-57.9,0-104-43-104-101.3s46.2-101.2,104-101.2c57.8,0,104,43,104,101.3S818.3-86.7,760.4-86.7z M999.9-89.3l-33-49.9
		c-3.8,0.6-8,0.9-11.8,0.9h-14.1v49h-41.4v-197.2h55.5c56.1,0,89.7,26.4,89.7,74.5c0,30.7-13.9,50.2-38.7,61.2l41.7,61.5H999.9z
		 M1217.7-89.3h-137v-197.2h132.8v35.7h-91.5v62.7h80.6v34.8h-80.6v28.3h95.6V-89.3z"/>
</g>
<path class="st2" d="M22.2,18.1H155v35.7H63.5v62.7h80.6v34.8H63.5v28.4h95.6v35.7h-137V18.1z M250,106.9l-54.5-88.8h47l20.3,34
	C268.7,61.9,276,79,276,79s5.6-16.8,11.5-26.9l19.5-34h44l-53.7,89.1L364,215.3h-47.3l-31.5-52.5c-6.2-10.1-13.9-27.8-13.9-27.8
	s-6.2,17.4-12.4,27.8l-31,52.5h-43.4L250,106.9z M392.3,18.1h55.5c56.1,0,89.7,28.7,89.7,76.3s-33.9,76-89.7,76h-14.1v45h-41.4V18.1
	z M446.6,134.7c33.6,0,48.4-13.3,48.4-40.4c0-27.2-15.3-40.6-48.4-40.6h-13v80.9L446.6,134.7L446.6,134.7z M569.7,18.1h41.4v161.5
	H702v35.7H569.7V18.1z M716.7,116.7c0-58.3,46.1-101.3,103.9-101.3s104,43,104,101.3S878.4,218,820.5,218S716.7,175,716.7,116.7z
	 M882,116.7c0-36.9-24.8-65-61.4-65s-61.4,28.1-61.4,65s24.8,65,61.4,65S882,153.5,882,116.7z M1107.8,215.3H1060l-33-49.9
	c-3.8,0.6-8,0.9-11.8,0.9H1001v49h-41.4V18.1h55.5c56.1,0,89.7,26.4,89.7,74.5c0,30.7-13.9,50.2-38.7,61.2L1107.8,215.3z
	 M1013.9,130.9c33.6,0,48.4-10.4,48.4-38.3s-15.3-38.9-48.4-38.9h-13v77.1L1013.9,130.9L1013.9,130.9z M1140.9,18.1h132.8v35.7
	h-91.5v62.7h80.6v34.8h-80.6v28.4h95.6v35.7h-137V18.1z"/>
<g>
	<ellipse class="st3" cx="820.5" cy="116.7" rx="61.4" ry="65"/>
	<path class="st3" d="M1013.9,53.7h-13v77.1h13v0.1c33.6,0,48.4-10.4,48.4-38.3S1047,53.7,1013.9,53.7z"/>
	<path class="st3" d="M446.6,53.7h-13v80.9h13v0.1c33.6,0,48.4-13.3,48.4-40.4C495,67.1,479.7,53.7,446.6,53.7z"/>
	<path class="st3" d="M10,0v10.9v3.8v207.9h1280V14.6v-3.8V0H10z M159.1,215.4h-137V18.1H155v35.7H63.5v62.7h80.6v34.8H63.5v28.4
		h95.6V215.4z M316.7,215.3l-31.5-52.5c-6.2-10.1-13.9-27.8-13.9-27.8s-6.2,17.4-12.4,27.8l-31,52.5h-43.4L250,106.9l-54.5-88.8h47
		l20.3,34C268.7,61.9,276,79,276,79s5.6-16.8,11.5-26.9l19.5-34h44l-53.7,89.1L364,215.3H316.7z M447.8,170.3h-14.1v45h-41.4V18.1
		h55.5c56.1,0,89.7,28.7,89.7,76.3C537.5,141.9,503.6,170.3,447.8,170.3z M702,215.3H569.7V18.1h41.4v161.5H702V215.3z M820.5,218
		c-57.9,0-103.9-43-103.9-101.3c0-58.3,46.1-101.3,103.9-101.3c57.8,0,104,43,104,101.3C924.5,175,878.4,218,820.5,218z M1060,215.3
		l-33-49.9c-3.8,0.6-8,0.9-11.8,0.9H1001v49h-41.4V18.1h55.5c56.1,0,89.7,26.4,89.7,74.5c0,30.7-13.9,50.2-38.7,61.2l41.7,61.5H1060
		z M1277.8,215.4h-137V18.1h132.8v35.7h-91.5v62.7h80.6v34.8h-80.6v28.4h95.6V215.4z"/>
</g>
<rect y="0" class="st3" width="15.5" height="236"/>
<rect x="652.5" y="-414.4" transform="matrix(-1.836970e-16 1 -1 -1.836970e-16 888.5428 -429.95)" class="st3" width="13.4" height="1287.5"/>
<rect x="1290" y="-1.3" class="st3" width="15.5" height="236"/>
</svg>
